<svg width="507" height="83" fill="none" xmlns="http://www.w3.org/2000/svg"><path opacity=".7" d="m80.174 2.005-9.49 7.859h-68.7v59.705L12.927 80.6h402.17l8.558-8.628h61.41l8.77 8.842h11.181v-70.34l-8.4-8.469H80.174Z" fill="#1f86a2aa"/><path d="M497.437.005H79.464l-9.49 7.86H0v62.532L12.105 82.6h403.813l8.559-8.628h59.767l8.77 8.842H507V9.646l-9.563-9.64Zm7.579 80.809h-11.181l-8.77-8.842h-61.41l-8.558 8.628H12.927L1.984 69.57V9.864h68.7l9.49-7.859h416.441l8.401 8.47v70.339Z" fill="#1f86a2"/><path d="m427.113 76.621-6.569 6.193h67.258l-6.143-6.193h-54.546ZM67.977 4.945 73.981 0 48.436.049l-5.76 4.896h25.301ZM43.506 0l-26.2.049-4.742 4.896h24.94L43.506 0Z" fill="#1f86a2"/></svg>
