<svg width="246" height="86" fill="none" xmlns="http://www.w3.org/2000/svg"><path opacity=".7" d="m83.442 2.07-9.877 8.114h-71.5v61.64l11.389 11.389h136.895l8.908-8.908h63.914l9.128 9.129h11.636v-72.62l-8.743-8.744H83.442Z" fill="#838382"/><path d="M236.047.006H82.704l-9.877 8.113H0v64.56l12.599 12.6h138.606l8.907-8.908h62.204l9.128 9.128H246V9.959L236.047.006Zm7.888 83.428h-11.636l-9.128-9.128h-63.914l-8.907 8.907H13.454L2.064 71.825v-61.64h71.501l9.878-8.115h151.749l8.743 8.744v72.62Z" fill="#fff"/><path d="m162.855 79.105-6.837 6.394h70.001l-6.393-6.394h-56.771Zm-92.106-74L76.997 0 50.411.05l-5.994 5.055h26.332ZM45.28 0 18.01.05l-4.933 5.055h25.956L45.28 0Z" fill="#fff"/></svg>