<svg width="163" height="35" viewBox="0 0 163 35" fill="none" xmlns="http://www.w3.org/2000/svg">
<path d="M39.8408 29.698C40.8664 28.827 41.8854 27.9496 42.9189 27.0864C44.8593 25.4652 46.8326 23.879 48.7414 22.2227C49.5205 21.5478 50.3589 21.2337 51.3712 21.257C52.1398 21.2739 52.9096 21.2427 53.6768 21.2674C54.0525 21.2791 54.2133 21.1701 54.2792 20.7858C54.7235 18.234 55.1927 15.6873 55.666 13.0757C55.3232 13.1211 55.1387 13.3301 54.9383 13.4975C49.2634 18.2288 43.5898 22.9613 37.9176 27.6978C35.5922 29.6396 33.2709 31.5879 30.9521 33.5388C30.6055 33.8308 30.239 34.0113 29.7671 34.0113C27.2203 34.0087 24.6722 34.0178 22.1254 34.0333C21.7906 34.0359 21.6495 33.9723 21.726 33.5959C21.9488 32.4952 22.1425 31.3893 22.3376 30.2834C22.4049 29.9018 22.5999 29.6305 22.9031 29.3774C32.5432 21.3297 42.1767 13.2717 51.8115 5.21751C53.7018 3.63783 55.5974 2.06464 57.4878 0.484963C57.8173 0.208486 58.1679 0.0527251 58.6201 0.0527251C61.0786 0.0553212 63.5383 0.0423411 65.9968 0.0124868C66.4727 0.00729478 66.677 0.0358511 66.5702 0.625148C65.281 7.72526 64.0287 14.8319 62.7566 21.9346C62.083 25.6988 61.387 29.4592 60.7174 33.2234C60.6225 33.7569 60.4023 34.0087 59.8131 34.0061C57.3322 33.9944 54.8513 34.0126 52.3691 34.0333C52.0238 34.0359 51.9091 33.9606 51.9816 33.5933C52.1872 32.5562 52.3283 31.5048 52.5458 30.4703C52.6499 29.9758 52.5458 29.8447 52.0198 29.8473C48.0889 29.868 44.158 29.8589 40.2258 29.8576C40.1216 29.8576 40.0175 29.8473 39.9133 29.8421C39.8909 29.794 39.8659 29.746 39.8408 29.698Z" fill="#FEFEFE"/>
<path d="M18.8073 0.0579016C24.2976 0.0579016 29.7893 0.0734777 35.2796 0.0384314C35.9849 0.0332394 36.0574 0.226643 35.9242 0.818536C35.7015 1.80892 35.5406 2.81358 35.3693 3.81434C35.3073 4.17649 35.1425 4.45296 34.8591 4.6879C33.5501 5.77304 32.2464 6.86467 30.944 7.95889C30.4352 8.38723 29.8539 8.56506 29.1855 8.56117C26.8576 8.54949 24.5296 8.56896 22.2016 8.54689C21.7561 8.543 21.5452 8.63256 21.4621 9.10374C20.6778 13.5728 19.8724 18.0392 19.0696 22.5057C18.4039 26.205 17.7303 29.9044 17.0751 33.6063C17.0145 33.9477 16.8563 34.0048 16.5465 34.0035C13.9773 33.9931 11.4068 33.9827 8.83761 34.01C8.31823 34.0151 8.33669 33.8127 8.40524 33.4375C9.11444 29.5708 9.81704 25.7027 10.5131 21.8333C11.2671 17.6459 12.0013 13.4547 12.7738 9.26988C12.8766 8.71303 12.7659 8.57545 12.1911 8.57934C8.34724 8.6027 4.50465 8.57804 0.660741 8.6053C0.0635906 8.60919 -0.0774581 8.48458 0.0359082 7.89529C0.503873 5.45633 0.940202 3.01088 1.3528 0.56153C1.43321 0.0799678 1.68104 0.0540076 2.06991 0.0540076C7.6499 0.0604976 13.2286 0.0579016 18.8073 0.0579016Z" fill="#FEFEFE"/>
<path d="M118.141 33.8607C118.483 31.8864 118.81 29.9511 119.154 28.0184C120.004 23.256 120.863 18.4962 121.718 13.7351C122.203 11.0365 122.692 8.33793 123.165 5.63677C123.32 4.74634 123.728 4.02594 124.445 3.44832C125.615 2.50467 126.762 1.53116 127.912 0.56155C128.332 0.207193 128.798 0.0527301 129.358 0.0514321C140.271 0.0462401 151.186 0.030664 162.1 0.0202799C162.375 0.0202799 162.664 -0.0329385 163 0.166955C162.052 0.956145 161.132 1.71289 160.221 2.48131C158.34 4.06877 156.452 5.65105 154.588 7.25928C153.529 8.17308 152.315 8.59623 150.915 8.59234C144.656 8.57417 138.398 8.57936 132.139 8.53912C131.487 8.53523 131.302 8.72863 131.197 9.3374C130.3 14.4879 129.364 19.6319 128.439 24.7785C128.357 25.2354 128.186 25.6391 127.81 25.9532C124.765 28.496 121.727 31.0466 118.684 33.5933C118.555 33.701 118.435 33.8347 118.141 33.8607Z" fill="#FEFEFE"/>
<path d="M162.305 4.37506C162.204 4.96695 162.134 5.38361 162.06 5.80028C160.695 13.4559 159.329 21.1103 157.965 28.766C157.83 29.5188 157.478 30.1211 156.853 30.6091C155.738 31.4827 154.648 32.39 153.584 33.3233C153.044 33.7971 152.47 34.0333 151.745 34.0333C142.261 34.0242 132.775 34.0281 123.29 34.0242C123.083 34.0242 122.784 34.1229 122.7 33.8801C122.61 33.6179 122.949 33.5725 123.099 33.4466C125.991 31.0271 128.898 28.6245 131.785 26.1998C132.3 25.7676 132.851 25.569 133.522 25.569C138.725 25.5664 143.928 25.5378 149.131 25.556C149.731 25.5586 149.901 25.3548 149.993 24.8265C150.658 21.0194 151.351 17.2189 152.026 13.4131C152.089 13.0575 152.209 12.7576 152.495 12.5188C155.622 9.90458 158.746 7.2852 161.872 4.66971C161.952 4.60351 162.044 4.55289 162.305 4.37506Z" fill="#FEFEFE"/>
<path d="M93.2575 33.9671C91.9841 33.9671 90.7094 33.9567 89.436 33.9736C89.0418 33.9788 88.9245 33.9308 89.0062 33.4765C89.929 28.3987 90.8188 23.3157 91.7165 18.2326C91.8575 17.437 92.22 16.788 92.8607 16.2545C99.026 11.1208 105.185 5.97813 111.334 0.825031C112.006 0.261695 112.727 -0.00439757 113.615 0.00858253C115.811 0.0410328 118.007 0.0514169 120.202 0.000794471C120.9 -0.0147817 120.983 0.17992 120.844 0.783495C120.616 1.77258 120.452 2.77594 120.294 3.7793C120.232 4.1726 120.044 4.46595 119.752 4.70998C116.794 7.18658 113.832 9.65669 110.875 12.1346C107.401 15.046 103.928 17.9601 100.46 20.8793C100.009 21.2596 99.7984 21.7749 99.6956 22.3473C99.0457 25.9831 98.3787 29.6162 97.7433 33.2558C97.6497 33.7893 97.4784 34.0139 96.8773 33.9853C95.6751 33.9269 94.4649 33.9671 93.2575 33.9671Z" fill="#CA9100"/>
<path d="M68.2167 33.9957C66.9433 33.9957 65.6686 33.9814 64.3952 34.0035C63.9747 34.0113 63.9048 33.9256 63.9826 33.496C65.1954 26.7853 66.3791 20.0694 67.576 13.3561C68.3116 9.23487 69.0551 5.11499 69.8025 0.9964C69.9515 0.172164 70.1452 0.0280845 70.9784 0.0267865C73.3498 0.0241905 75.7226 0.0449586 78.0927 0.0021243C78.6701 -0.00825978 78.6859 0.209806 78.6095 0.632957C77.5931 6.31954 76.5847 12.0087 75.5657 17.6953C74.639 22.8705 73.6991 28.0443 72.7711 33.2195C72.6762 33.7478 72.5378 34.0697 71.8391 34.0204C70.6369 33.9334 69.4255 33.9957 68.2167 33.9957Z" fill="#FEFEFE"/>
<path d="M85.8839 0.048359C87.156 0.048359 88.4281 0.0561471 89.7001 0.043167C90.0626 0.039273 90.3263 0.163882 90.553 0.435166C92.7294 3.03248 94.9084 5.62851 97.094 8.21933C97.3022 8.46596 97.3273 8.61004 97.0465 8.84108C94.6619 10.8102 92.293 12.7961 89.9216 14.7808C89.7581 14.9184 89.6738 15.0274 89.4694 14.7795C87.1138 11.9109 84.8122 8.99295 82.3419 6.2217C81.1449 4.88085 80.677 3.56337 81.2319 1.87206C81.3848 1.40478 81.4336 0.901152 81.4956 0.409206C81.5351 0.0847033 81.6748 -0.0048594 82.0018 0.000332643C83.2962 0.0198028 84.5907 0.00812071 85.8852 0.00812071C85.8839 0.0223988 85.8839 0.0353789 85.8839 0.048359Z" fill="#CA9100"/>
</svg>
